# xmcd CD database file
#
# Track frame offsets:
#	150
#	18572
#	100467
#	120035
#	193795
#	207237
#	242245
#	314407
#
# Disc length: 4421 seconds
#
# Revision: 0
# Processed by: cddbd v1.5.1PL2 Copyright (c) Steve Scherf et al.
# Submitted via: CDex 1.50
#
DISCID=6a114308
DTITLE=Φなる・あぷろーち - Φなる・あぷろーち DVD Vol.3 初回限定版特典 スペシャルCD「みゆみゆ＆だいすけ ラブラブアプローチ」 Vol.3
DYEAR=2005
DGENRE=Anime
TTITLE0=オープニングトーク
TTITLE1=Φなるらぶらぶトーク
TTITLE2=Φなる大辞典
TTITLE3=ドクターだいさくの心理テスト
TTITLE4=美紀のΦなる声優あぷろーち
TTITLE5=Φなるチャレンジタイム
TTITLE6=Φなる「もしも」のコーナー
TTITLE7=エンディング
EXTD=YEAR: 2005
EXTT0=
EXTT1=
EXTT2=
EXTT3=
EXTT4=
EXTT5=
EXTT6=
EXTT7=
PLAYORDER=
